<?xml version="1.0" encoding="utf-8"?>
<!-- Generator: Adobe Illustrator 15.0.0, SVG Export Plug-In . SVG Version: 6.00 Build 0)  -->
<!DOCTYPE svg PUBLIC "-//W3C//DTD SVG 1.1//EN" "http://www.w3.org/Graphics/SVG/1.1/DTD/svg11.dtd">
<svg version="1.1" id="Ebene_1" xmlns="http://www.w3.org/2000/svg" xmlns:xlink="http://www.w3.org/1999/xlink" x="0px" y="0px"
	 width="16px" height="16px" viewBox="0 0 16 16" enable-background="new 0 0 16 16" xml:space="preserve">
<path fill="#FFFFFF" stroke="#B9B9B9" stroke-width="0.931" d="M0.495,0.57h15.069v14.926H0.495V0.57z"/>
<g>
	<polygon fill="#E44D26" points="4.485,11.934 3.702,3.159 12.299,3.159 11.516,11.934 7.996,12.908 	"/>
	<polygon fill="#F16529" points="8,12.164 10.846,11.373 11.514,3.875 8,3.875 	"/>
	<polygon fill="#EBEBEB" points="8,7.13 6.578,7.13 6.479,6.029 8,6.029 8,4.953 7.998,4.953 5.301,4.953 5.328,5.241 5.592,8.207 
		8,8.207 	"/>
	<polygon fill="#EBEBEB" points="8,9.926 7.997,9.928 6.797,9.604 6.72,8.744 6.138,8.744 5.641,8.744 5.792,10.436 7.996,11.047 
		8,11.045 	"/>
	<polygon fill="#FFFFFF" points="7.998,7.13 7.998,8.207 9.322,8.207 9.197,9.604 7.998,9.928 7.998,11.047 10.203,10.436 
		10.221,10.252 10.473,7.419 10.498,7.13 10.207,7.13 	"/>
	<polygon fill="#FFFFFF" points="7.998,4.953 7.998,5.621 7.998,6.026 7.998,6.029 10.594,6.029 10.594,6.029 10.598,6.029 
		10.617,5.787 10.668,5.241 10.693,4.953 	"/>
</g>
</svg>
